<svg width="148" height="136" viewBox="0 0 148 136" fill="none" xmlns="http://www.w3.org/2000/svg">
<path d="M0 111.99H67.6935V11.1012H0V111.99Z" fill="#7D0000"/>
<path d="M135.387 111.99H67.6934V11.1012H135.387V111.99Z" fill="#BD0D0D"/>
<path d="M3.91992 103.41C25.175 122.335 46.4323 84.4905 67.6935 103.41C67.6935 71.8762 67.6935 40.3346 67.6935 8.79693C46.4323 -10.1265 25.175 27.7184 3.91992 8.79693C3.91992 40.3346 3.91992 71.8762 3.91992 103.41Z" fill="#F58B11"/>
<path d="M131.466 103.41C110.21 122.335 88.9522 84.4905 67.6934 103.41C67.6934 71.8762 67.6934 40.3346 67.6934 8.79693C88.9522 -10.1265 110.21 27.7184 131.466 8.79693C131.466 40.3346 131.466 71.8762 131.466 103.41Z" fill="#FFB521"/>
<path d="M3.91992 100.078C25.175 119.005 46.4323 81.1541 67.6935 100.078C67.6935 68.5418 67.6935 37.0021 67.6935 5.4625C46.4323 -13.4609 25.175 24.3879 3.91992 5.4625C3.91992 37.0021 3.91992 68.5418 3.91992 100.078" fill="#FFB521"/>
<path d="M131.466 100.078C110.21 119.005 88.9522 81.1541 67.6934 100.078C67.6934 68.5418 67.6934 37.0021 67.6934 5.4625C88.9522 -13.4609 110.21 24.3879 131.466 5.4625C131.466 37.0021 131.466 68.5418 131.466 100.078" fill="#FFCC3B"/>
<path d="M60.0886 18.3029C44.5935 9.08006 29.0985 29.769 13.6034 20.7644C13.5458 19.5887 13.4867 18.411 13.4314 17.2334C28.9241 26.4562 44.4201 5.76724 59.9174 14.7699C59.9758 15.9475 60.031 17.1252 60.0886 18.3029" fill="#3D160E"/>
<path d="M60.0886 26.1416C44.5935 16.9188 29.0985 37.6057 13.6034 28.6051C13.5458 27.4274 13.4867 26.2497 13.4314 25.0721C28.9241 34.2969 44.4201 13.6079 59.9174 22.6106C59.9758 23.7882 60.031 24.9639 60.0886 26.1416" fill="#3D160E"/>
<path d="M60.0886 33.9842C44.5935 24.7594 29.0985 45.4483 13.6034 36.4437C13.5458 35.268 13.4867 34.0884 13.4314 32.9127C28.9241 42.1355 44.4201 21.4466 59.9174 30.4511C59.9758 31.6268 60.031 32.8045 60.0886 33.9842Z" fill="#3D160E"/>
<path d="M60.0886 41.8209C44.5935 32.6001 29.0985 53.287 13.6034 44.2844C13.5458 43.1087 13.4867 41.9291 13.4314 40.7514C28.9241 49.9762 44.4201 29.2873 59.9174 38.2899C59.9758 39.4656 60.031 40.6433 60.0886 41.8209" fill="#3D160E"/>
<path d="M60.0886 49.6636C44.5935 40.4388 29.0985 61.1258 13.6034 52.1231C13.5458 50.9455 13.4867 49.7678 13.4314 48.5901C28.9241 57.813 44.4201 37.128 59.9174 46.1306C59.9758 47.3063 60.031 48.484 60.0886 49.6636Z" fill="#3D160E"/>
<path d="M60.0886 57.5043C44.5935 48.2795 29.0985 68.9665 13.6034 59.9638C13.5458 58.7881 13.4867 57.6105 13.4314 56.4308C28.9241 65.6556 44.4201 44.9667 59.9174 53.9693C59.9758 55.145 60.031 56.3247 60.0886 57.5043" fill="#3D160E"/>
<path d="M60.0886 65.341C44.5935 56.1182 29.0985 76.8071 13.6034 67.8045C13.5458 66.6268 13.4867 65.4492 13.4314 64.2715C28.9241 73.4943 44.4201 52.8054 59.9174 61.81C59.9758 62.9857 60.031 64.1633 60.0886 65.341" fill="#3D160E"/>
<path d="M60.0886 73.1837C44.5935 63.9589 29.0985 84.6458 13.6034 75.6452C13.5458 74.4655 13.4867 73.2898 13.4314 72.1122C28.9241 81.3369 44.4201 60.646 59.9174 69.6506C59.9758 70.8263 60.031 72.006 60.0886 73.1837Z" fill="#3D160E"/>
<path d="M60.0886 81.0204C44.5935 71.7976 29.0985 92.4865 13.6034 83.4819C13.5458 82.3082 13.4867 81.1305 13.4314 79.9509C28.9241 89.1737 44.4201 68.4867 59.9174 77.4913C59.9758 78.665 60.031 79.8427 60.0886 81.0204" fill="#3D160E"/>
<path d="M60.0886 88.8611C44.5935 79.6383 29.0985 100.325 13.6034 91.3246C13.5458 90.145 13.4867 88.9673 13.4314 87.7896C28.9241 97.0124 44.4201 76.3274 59.9174 85.3301C59.9758 86.5058 60.031 87.6834 60.0886 88.8611Z" fill="#3D160E"/>
<path d="M75.2935 18.3029C90.7884 9.08006 106.286 29.769 121.779 20.7644C121.842 19.5887 121.895 18.411 121.953 17.2334C106.459 26.4562 90.962 5.76724 75.4671 14.7699C75.411 15.9475 75.3526 17.1252 75.2935 18.3029" fill="#5B271C"/>
<path d="M75.2935 26.1416C90.7884 16.9188 106.286 37.6057 121.779 28.6051C121.842 27.4274 121.895 26.2497 121.953 25.0721C106.459 34.2969 90.962 13.6079 75.4671 22.6106C75.411 23.7882 75.3526 24.9639 75.2935 26.1416" fill="#5B271C"/>
<path d="M75.2935 33.9842C90.7884 24.7594 106.286 45.4483 121.779 36.4437C121.842 35.268 121.895 34.0884 121.953 32.9127C106.459 42.1355 90.962 21.4466 75.4671 30.4511C75.411 31.6268 75.3526 32.8045 75.2935 33.9842Z" fill="#5B271C"/>
<path d="M75.2935 41.8209C90.7884 32.6001 106.286 53.287 121.779 44.2844C121.842 43.1087 121.895 41.9291 121.953 40.7514C106.459 49.9762 90.962 29.2873 75.4671 38.2899C75.411 39.4656 75.3526 40.6433 75.2935 41.8209" fill="#5B271C"/>
<path d="M75.2935 49.6636C90.7884 40.4388 106.286 61.1258 121.779 52.1231C121.842 50.9455 121.895 49.7678 121.953 48.5901C106.459 57.813 90.962 37.128 75.4671 46.1306C75.411 47.3063 75.3526 48.484 75.2935 49.6636Z" fill="#5B271C"/>
<path d="M75.2935 57.5043C90.7884 48.2795 106.286 68.9665 121.779 59.9638C121.842 58.7881 121.895 57.6105 121.953 56.4308C106.459 65.6556 90.962 44.9667 75.4671 53.9693C75.411 55.145 75.3526 56.3247 75.2935 57.5043" fill="#5B271C"/>
<path d="M75.2935 65.341C90.7884 56.1182 106.286 76.8071 121.779 67.8045C121.842 66.6268 121.895 65.4492 121.953 64.2715C106.459 73.4943 90.962 52.8054 75.4671 61.81C75.411 62.9857 75.3526 64.1633 75.2935 65.341" fill="#5B271C"/>
<path d="M75.2935 73.1837C90.7884 63.9589 106.286 84.6458 121.779 75.6452C121.842 74.4655 121.895 73.2898 121.953 72.1122C106.459 81.3369 90.962 60.646 75.4671 69.6506C75.411 70.8263 75.3526 72.006 75.2935 73.1837Z" fill="#5B271C"/>
<path d="M75.2935 81.0204C90.7884 71.7976 106.286 92.4865 121.779 83.4819C121.842 82.3082 121.895 81.1305 121.953 79.9509C106.459 89.1737 90.962 68.4867 75.4671 77.4913C75.411 78.665 75.3526 79.8427 75.2935 81.0204" fill="#5B271C"/>
<path d="M75.2935 88.8611C90.7884 79.6383 106.286 100.325 121.779 91.3246C121.842 90.145 121.895 88.9673 121.953 87.7896C106.459 97.0124 90.962 76.3274 75.4671 85.3301C75.411 86.5058 75.3526 87.6834 75.2935 88.8611Z" fill="#5B271C"/>
<path d="M62.2531 113.044C64.0532 114.139 64.5701 116.592 63.2108 118.456C61.8699 120.318 59.2311 120.66 57.7249 119.162C56.2336 117.678 55.9179 115.507 57.0399 113.952C58.1635 112.415 60.4483 111.945 62.2531 113.044" fill="#218FDE"/>
<path d="M59.8613 115.261C60.4826 115.702 60.6301 116.569 60.1608 117.19C59.6938 117.811 58.8123 117.902 58.227 117.418C57.6379 116.929 57.5251 116.097 57.9574 115.523C58.3905 114.947 59.2346 114.823 59.8613 115.261" fill="#38B6FF"/>
<path d="M65.887 106.353C67.8024 107.236 68.5996 109.599 67.5283 111.575C66.4576 113.549 64.0269 114.18 62.2529 113.044C60.475 111.903 59.876 109.654 60.8075 107.93C61.7461 106.206 63.9709 105.465 65.887 106.353" fill="#218FDE"/>
<path d="M63.7811 108.852C64.4563 109.204 64.715 110.045 64.3379 110.72C63.9632 111.394 63.1131 111.618 62.454 111.229C61.7997 110.84 61.5677 110.014 61.9258 109.371C62.2804 108.732 63.1068 108.494 63.7811 108.852" fill="#38B6FF"/>
<path d="M68.7994 99.3127C70.793 100.007 71.8122 102.266 70.9621 104.326C70.1165 106.385 67.7847 107.275 65.8871 106.353C63.9894 105.429 63.1483 103.243 63.9012 101.412C64.6575 99.5781 66.8072 98.6187 68.7994 99.3127Z" fill="#218FDE"/>
<path d="M66.957 102.012C67.6613 102.297 68.0046 103.103 67.7034 103.815C67.4039 104.519 66.5853 104.837 65.8855 104.523C65.1921 104.212 64.8703 103.41 65.1591 102.732C65.4455 102.055 66.2443 101.729 66.957 102.012Z" fill="#38B6FF"/>
<path d="M71.0372 92.0324C73.0862 92.5495 74.3036 94.7023 73.6523 96.8198C73.0033 98.9392 70.7785 100.038 68.7994 99.3127C66.8149 98.5814 65.7658 96.4777 66.3517 94.5745C66.9385 92.6655 68.9953 91.5133 71.0372 92.0324Z" fill="#218FDE"/>
<path d="M69.4452 94.889C70.1756 95.1053 70.5934 95.8799 70.3598 96.6094C70.1273 97.3447 69.3393 97.7359 68.6197 97.4921C67.8922 97.2464 67.5059 96.4776 67.7249 95.7757C67.9498 95.0699 68.7125 94.6688 69.4452 94.889" fill="#38B6FF"/>
<path d="M72.6591 84.5849C74.7404 84.9388 76.1314 86.9834 75.6581 89.1343C75.1935 91.2931 73.0755 92.5789 71.0371 92.0323C68.9981 91.4818 67.7685 89.4725 68.1926 87.5123C68.621 85.558 70.5772 84.2369 72.6591 84.5849Z" fill="#218FDE"/>
<path d="M71.3036 87.5674C72.0538 87.7227 72.5284 88.458 72.3611 89.2071C72.1899 89.9562 71.4471 90.4143 70.7006 90.2334C69.9641 90.0525 69.5034 89.3172 69.667 88.5976C69.829 87.8741 70.561 87.4101 71.3036 87.5674Z" fill="#38B6FF"/>
<path d="M74.1061 77.104C76.1404 77.6643 77.3908 79.6147 77.0452 81.5159C76.9561 81.9975 76.7802 82.4379 76.5183 82.8331C76.2572 83.248 75.9094 83.6372 75.5154 83.9263C74.7144 84.5141 73.7005 84.7717 72.6591 84.5849C71.6255 84.4001 70.7546 83.8162 70.1862 83.0474C69.8981 82.6562 69.6793 82.2315 69.5612 81.7518C69.4497 81.2426 69.4259 80.696 69.5311 80.1435C69.9383 77.9022 72.0693 76.5516 74.1061 77.104" fill="#218FDE"/>
<path d="M72.6502 80.0767C73.3959 80.2262 73.8936 80.9398 73.766 81.6791C73.6447 82.4203 72.9351 82.9413 72.1801 82.8194C71.4275 82.6975 70.9083 82.0192 71.0373 81.2249C71.1725 80.4424 71.899 79.9312 72.6502 80.0767" fill="#38B6FF"/>
<path d="M76.5843 69.9102C78.5004 70.7851 79.4305 72.8986 78.813 74.6976C78.1909 76.4985 76.1588 77.6093 74.106 77.104C72.0601 76.6086 70.8367 74.3987 71.5848 72.2164C72.3334 70.034 74.6644 69.0294 76.5843 69.9102" fill="#218FDE"/>
<path d="M74.6792 72.6214C75.4027 72.8809 75.7706 73.6615 75.5447 74.3732C75.3089 75.0849 74.5486 75.4918 73.8122 75.2795C73.0818 75.0691 72.6669 74.2768 72.9166 73.5199C73.1579 72.7571 73.9694 72.3579 74.6792 72.6214" fill="#38B6FF"/>
<path d="M80.2686 63.2492C81.9911 64.4799 82.5141 66.7016 81.614 68.3432C80.7055 69.9829 78.5322 70.732 76.5844 69.9102C74.6445 69.0943 73.7967 66.6917 74.9278 64.649C76.0553 62.6003 78.5544 62.0302 80.2686 63.2492" fill="#218FDE"/>
<path d="M77.9094 65.5789C78.5674 65.9623 78.8039 66.7979 78.4546 67.4585C78.1052 68.1151 77.2871 68.3943 76.5984 68.0621C75.9095 67.7337 75.6307 66.8746 76.0115 66.1648C76.3849 65.4511 77.2464 65.1955 77.9094 65.5789" fill="#38B6FF"/>
<path d="M85.186 57.4472C86.6138 58.9965 86.6851 61.2771 85.4978 62.6888C84.296 64.0965 82.0387 64.417 80.2687 63.2491C78.5146 62.099 78.1327 59.5588 79.6627 57.7579C81.1886 55.9491 83.759 55.8921 85.186 57.4472" fill="#218FDE"/>
<path d="M82.4021 59.2521C82.975 59.7593 83.0366 60.6205 82.5718 61.2005C82.0988 61.7707 81.2463 61.8926 80.6295 61.4345C80.0214 60.9882 79.9139 60.0857 80.4247 59.4586C80.9329 58.8274 81.8337 58.7449 82.4021 59.2521" fill="#38B6FF"/>
<path d="M91.2308 52.8289C92.2753 54.6613 91.8483 56.8889 90.3999 58.0016C88.9484 59.1105 86.675 58.9473 85.1859 57.4472C83.6992 55.953 83.8651 53.3833 85.7551 51.9383C87.6512 50.4834 90.1833 51.0005 91.2308 52.8289Z" fill="#218FDE"/>
<path d="M88.1161 53.985C88.5653 54.6043 88.4393 55.4556 87.8626 55.9216C87.2834 56.3856 86.4217 56.3188 85.9188 55.7447C85.4135 55.1726 85.5002 54.2721 86.1345 53.7648C86.7689 53.2537 87.6698 53.3677 88.1161 53.985" fill="#38B6FF"/>
<path d="M98.1597 49.6951C98.7533 51.7181 97.8318 53.7884 96.1767 54.5434C94.5209 55.2865 92.3514 54.62 91.2307 52.829C90.1041 51.0457 90.8422 48.5646 93.0247 47.5815C95.209 46.5906 97.5583 47.67 98.1597 49.6951Z" fill="#218FDE"/>
<path d="M94.8636 50.1079C95.1577 50.8118 94.8451 51.612 94.1755 51.9384C93.5088 52.2588 92.6848 52.0013 92.3199 51.3289C91.956 50.6604 92.244 49.8013 92.9821 49.4474C93.7123 49.0915 94.564 49.4041 94.8636 50.1079Z" fill="#38B6FF"/>
<path d="M105.623 48.2559C105.731 50.3694 104.347 52.1565 102.567 52.5065C100.789 52.8407 98.8394 51.6926 98.1598 49.6951C97.4701 47.6995 98.7679 45.4582 101.125 45.004C103.483 44.5479 105.519 46.1561 105.623 48.2559" fill="#218FDE"/>
<path d="M102.32 47.8902C102.446 48.6412 101.953 49.3529 101.232 49.5122C100.503 49.6695 99.7655 49.2252 99.5634 48.4898C99.366 47.7526 99.8453 46.9838 100.642 46.8088C101.44 46.6358 102.196 47.1372 102.32 47.8902Z" fill="#38B6FF"/>
<path d="M113.217 48.6098C112.824 50.684 111.062 52.1015 109.256 52.0209C107.442 51.9324 105.818 50.3616 105.623 48.2559C105.426 46.1601 107.208 44.2766 109.607 44.3906C112.008 44.5007 113.61 46.5395 113.217 48.6098Z" fill="#218FDE"/>
<path d="M110.094 47.4773C110.037 48.2402 109.395 48.8162 108.653 48.7966C107.91 48.7808 107.294 48.1773 107.274 47.4144C107.251 46.6536 107.896 46.0165 108.717 46.0342C109.535 46.0539 110.152 46.7165 110.094 47.4773" fill="#38B6FF"/>
<path d="M120.519 50.7312C119.657 52.656 117.604 53.6233 115.862 53.1258C114.125 52.6107 112.914 50.7017 113.217 48.6098C113.517 46.5258 115.691 45.118 117.993 45.7865C120.299 46.455 121.379 48.8025 120.519 50.7312Z" fill="#218FDE"/>
<path d="M117.746 48.9008C117.51 49.6283 116.754 50.0353 116.037 49.8465C115.321 49.6558 114.864 48.9244 115.019 48.1792C115.177 47.4321 115.952 46.9662 116.744 47.1746C117.535 47.383 117.979 48.1753 117.746 48.9008" fill="#38B6FF"/>
<path d="M127.14 54.4628C125.876 56.1516 123.649 56.6314 122.056 55.7368C120.476 54.8383 119.737 52.6933 120.519 50.7312C121.298 48.7671 123.737 47.9079 125.815 49.0836C127.89 50.2573 128.412 52.7779 127.14 54.4628Z" fill="#218FDE"/>
<path d="M124.857 52.0563C124.464 52.711 123.631 52.9332 122.977 52.5891C122.325 52.2352 122.047 51.4193 122.37 50.7292C122.699 50.0352 123.56 49.7638 124.28 50.1492C125.001 50.5345 125.249 51.4016 124.857 52.0563Z" fill="#38B6FF"/>
<path d="M132.8 59.5509C131.207 60.9429 128.926 60.9232 127.552 59.6983C126.186 58.4617 125.94 56.2007 127.14 54.4627C128.343 52.7306 130.902 52.4318 132.663 54.0164C134.425 55.5991 134.385 58.1687 132.8 59.5509" fill="#218FDE"/>
<path d="M131.081 56.712C130.551 57.2684 129.694 57.3038 129.13 56.8221C128.571 56.3364 128.477 55.4753 128.948 54.8756C129.422 54.274 130.321 54.1954 130.934 54.7262C131.55 55.2531 131.604 56.1595 131.081 56.712" fill="#38B6FF"/>
<path d="M137.339 65.6576C135.516 66.7271 133.265 66.2729 132.143 64.7709C131.034 63.2688 131.261 60.9921 132.8 59.551C134.338 58.1059 136.887 58.3379 138.282 60.2175C139.677 62.101 139.159 64.592 137.339 65.6576" fill="#218FDE"/>
<path d="M136.197 62.5452C135.574 62.9876 134.726 62.8539 134.267 62.2641C133.812 61.6763 133.898 60.8112 134.483 60.3216C135.065 59.8321 135.963 59.9363 136.453 60.5752C136.949 61.2122 136.815 62.1048 136.197 62.5452" fill="#38B6FF"/>
<path d="M140.739 72.468C138.769 73.2328 136.612 72.3972 135.758 70.6965C134.917 68.992 135.552 66.7821 137.339 65.6575C139.12 64.531 141.571 65.2191 142.598 67.2894C143.63 69.3557 142.703 71.7071 140.739 72.468Z" fill="#218FDE"/>
<path d="M140.139 69.2141C139.449 69.5405 138.628 69.2593 138.286 68.5948C137.941 67.9322 138.182 67.1045 138.85 66.7251C139.513 66.3496 140.368 66.611 140.739 67.3208C141.107 68.0345 140.83 68.8838 140.139 69.2141" fill="#38B6FF"/>
<path d="M143.078 79.713C141.02 80.2026 138.992 79.0583 138.395 77.2201C137.812 75.3798 138.795 73.282 140.739 72.468C142.685 71.6482 144.977 72.7099 145.666 74.8843C146.373 77.049 145.128 79.2313 143.078 79.713Z" fill="#218FDE"/>
<path d="M142.951 76.4099C142.22 76.6321 141.449 76.231 141.21 75.5213C140.976 74.8115 141.34 74.029 142.059 73.7617C142.767 73.4962 143.581 73.8855 143.831 74.6385C144.087 75.3935 143.68 76.1858 142.951 76.4099" fill="#38B6FF"/>
<path d="M144.198 87.2352C142.078 87.2096 140.376 85.7941 140.089 84.0364C139.81 82.2905 141.016 80.2144 143.078 79.713C145.11 79.2176 147.237 80.4385 147.635 82.8489C148.02 85.2495 146.302 87.2627 144.198 87.2352Z" fill="#218FDE"/>
<path d="M144.705 83.9459C143.957 84.0423 143.262 83.5291 143.124 82.8017C142.99 82.0742 143.46 81.3428 144.203 81.1718C144.947 81.0066 145.693 81.4923 145.849 82.3023C145.992 83.1103 145.47 83.8476 144.705 83.9459Z" fill="#38B6FF"/>
<path d="M143.074 94.7317C141.096 94.0043 139.939 92.1346 140.174 90.4752C140.433 88.81 142.078 87.3236 144.198 87.2351C146.289 87.1427 148.104 89.0832 147.731 91.588C147.555 92.8109 146.874 93.8273 146.003 94.3857C145.124 94.9539 144.074 95.0699 143.074 94.7317Z" fill="#218FDE"/>
<path d="M144.609 91.7709C143.863 91.6293 143.358 90.9333 143.441 90.2039C143.527 89.4784 144.163 88.9102 144.932 88.9417C145.689 88.9751 146.284 89.6809 146.186 90.5165C146.092 91.3521 145.361 91.9124 144.609 91.7709" fill="#38B6FF"/>
<path d="M139.48 101.416C137.84 100.087 137.4 97.8952 138.197 96.4068C139.011 94.9303 141.049 94.1301 143.074 94.7318C144.072 95.064 144.847 95.7915 145.209 96.7726C145.567 97.7399 145.505 98.9608 144.914 100.046C143.709 102.262 141.11 102.745 139.48 101.416Z" fill="#218FDE"/>
<path d="M141.921 99.1397C141.262 98.7563 141.031 97.9266 141.356 97.2719C141.684 96.6211 142.483 96.3065 143.19 96.5936C143.895 96.8806 144.203 97.7516 143.831 98.5066C143.455 99.2596 142.578 99.5329 141.921 99.1397Z" fill="#38B6FF"/>
<path d="M134.089 106.77C132.81 105.079 132.992 102.81 134.267 101.54C135.548 100.29 137.768 100.17 139.48 101.416C141.186 102.649 141.362 105.284 139.629 106.984C137.916 108.677 135.351 108.449 134.089 106.77" fill="#218FDE"/>
<path d="M137.036 105.244C136.514 104.684 136.532 103.825 137.043 103.292C137.554 102.757 138.42 102.712 138.995 103.204C139.575 103.707 139.606 104.617 139.031 105.207C138.462 105.803 137.554 105.799 137.036 105.244" fill="#38B6FF"/>
<path d="M127.698 110.905C126.711 109.031 127.321 106.792 128.916 105.759C130.509 104.743 132.752 105.136 134.089 106.77C135.423 108.408 135.001 110.936 133.046 112.185C131.1 113.439 128.673 112.768 127.698 110.905" fill="#218FDE"/>
<path d="M130.866 109.951C130.461 109.302 130.656 108.457 131.275 108.042C131.895 107.631 132.75 107.779 133.196 108.392C133.647 109.013 133.477 109.896 132.81 110.342C132.143 110.789 131.266 110.6 130.866 109.951" fill="#38B6FF"/>
<path d="M120.779 114.096C120.019 112.122 120.909 109.949 122.691 109.131C124.468 108.315 126.673 109.062 127.698 110.905C128.723 112.753 127.93 115.136 125.881 116.077C123.832 117.011 121.536 116.062 120.779 114.096Z" fill="#218FDE"/>
<path d="M124.039 113.555C123.729 112.855 124.034 112.041 124.711 111.723C125.39 111.398 126.215 111.677 126.557 112.356C126.903 113.044 126.611 113.881 125.894 114.221C125.18 114.556 124.35 114.253 124.039 113.555" fill="#38B6FF"/>
<path d="M113.575 116.573C112.984 114.54 114.071 112.444 115.966 111.795C117.853 111.152 119.987 112.137 120.779 114.096C121.572 116.046 120.534 118.311 118.444 119.023C116.35 119.738 114.166 118.596 113.575 116.573" fill="#218FDE"/>
<path d="M116.862 116.333C116.624 115.607 117.012 114.829 117.721 114.575C118.43 114.328 119.219 114.695 119.488 115.407C119.752 116.123 119.374 116.925 118.64 117.186C117.902 117.446 117.105 117.054 116.862 116.333" fill="#38B6FF"/>
<path d="M106.205 118.496C105.745 116.437 106.985 114.408 108.94 113.897C110.897 113.388 112.957 114.552 113.575 116.573C114.193 118.588 112.984 120.743 110.868 121.291C108.753 121.846 106.662 120.558 106.205 118.496" fill="#218FDE"/>
<path d="M109.498 118.49C109.309 117.752 109.754 116.999 110.483 116.803C111.213 116.608 111.97 117.039 112.179 117.774C112.389 118.507 111.95 119.274 111.195 119.479C110.448 119.675 109.684 119.231 109.498 118.49Z" fill="#38B6FF"/>
<path d="M98.7318 119.982C98.3785 117.9 99.7331 115.94 101.732 115.543C103.731 115.147 105.721 116.445 106.204 118.496C106.681 120.554 105.35 122.618 103.216 123.035C101.086 123.462 99.0751 122.064 98.7318 119.982" fill="#218FDE"/>
<path d="M102.017 120.157C101.874 119.412 102.358 118.684 103.096 118.537C103.838 118.386 104.571 118.861 104.73 119.605C104.897 120.352 104.412 121.091 103.653 121.242C102.893 121.398 102.16 120.912 102.017 120.157Z" fill="#38B6FF"/>
<path d="M91.1894 121.095C90.936 118.999 92.3852 117.1 94.4089 116.799C96.4325 116.5 98.361 117.902 98.732 119.982C99.0975 122.06 97.6621 124.048 95.5264 124.36C93.3837 124.677 91.4415 123.191 91.1894 121.095" fill="#218FDE"/>
<path d="M94.4665 121.429C94.3591 120.67 94.8781 119.972 95.6262 119.858C96.3765 119.748 97.0815 120.259 97.2052 121.01C97.3228 121.765 96.8035 122.477 96.044 122.593C95.2775 122.709 94.571 122.182 94.4665 121.429" fill="#38B6FF"/>
<path d="M83.6078 121.881C83.4435 119.776 84.9672 117.937 87.0101 117.725C89.0521 117.518 90.9222 119.001 91.1894 121.095C91.4613 123.187 89.9423 125.106 87.7958 125.324C85.6514 125.548 83.7752 123.985 83.6078 121.881Z" fill="#218FDE"/>
<path d="M86.8671 122.351C86.7926 121.592 87.3441 120.914 88.099 120.833C88.8501 120.751 89.5313 121.295 89.6212 122.052C89.7087 122.809 89.1603 123.499 88.3932 123.58C87.6252 123.662 86.9448 123.108 86.8671 122.351" fill="#38B6FF"/>
<path d="M76.0016 122.355C75.9265 120.243 77.5207 118.47 79.5706 118.342C81.6196 118.214 83.4282 119.779 83.6079 121.881C83.7892 123.985 82.1963 125.831 80.0452 125.969C77.8955 126.104 76.083 124.459 76.0016 122.355" fill="#218FDE"/>
<path d="M79.2387 122.957C79.195 122.192 79.7716 121.541 80.5282 121.49C81.2847 121.441 81.9451 122.011 82.0027 122.772C82.0596 123.535 81.4819 124.199 80.7156 124.248C79.9453 124.299 79.2849 123.717 79.2387 122.957Z" fill="#38B6FF"/>
<path d="M68.383 122.495C68.4092 120.387 70.0803 118.692 72.1233 118.651C74.1668 118.612 75.908 120.243 76.0015 122.355C76.0977 124.459 74.4334 126.25 72.2676 126.289C70.1041 126.332 68.36 124.604 68.383 122.495Z" fill="#218FDE"/>
<path d="M71.5909 123.246C71.5832 122.483 72.1876 121.856 72.9441 121.836C73.7005 121.818 74.3349 122.42 74.3595 123.181C74.3849 123.944 73.7819 124.583 73.0094 124.6C72.2399 124.618 71.6031 124.008 71.5909 123.246Z" fill="#38B6FF"/>
<path d="M60.7784 122.097C61.1209 120.021 62.7498 118.507 64.7473 118.584C66.7334 118.673 68.3914 120.383 68.3829 122.495C68.3792 124.602 66.6211 126.315 64.4064 126.22C62.1922 126.136 60.4328 124.187 60.7784 122.097" fill="#218FDE"/>
<path d="M63.925 123.134C63.9633 122.373 64.6076 121.789 65.3642 121.816C66.1144 121.842 66.7127 122.475 66.6974 123.236C66.6852 124.001 66.0446 124.606 65.2619 124.579C64.4818 124.551 63.8772 123.896 63.925 123.134Z" fill="#38B6FF"/>
<path d="M57.7963 124.52C54.8387 126.147 51.9364 126.564 51.3213 125.446C50.7045 124.327 52.6047 122.101 55.5668 120.468C58.5243 118.84 61.4243 118.425 62.041 119.545C62.6562 120.662 60.7576 122.89 57.7963 124.52Z" fill="#0E6EB3"/>
<path d="M46.3623 128.871C42.7457 130.862 39.706 132.28 39.577 132.042C39.4441 131.804 42.2703 129.995 45.8845 128.005C49.5009 126.016 52.5391 124.596 52.6704 124.83C52.8041 125.068 49.9763 126.877 46.3623 128.871" fill="#0E6EB3"/>
<path d="M47.1572 129.903C43.9432 132.492 41.1968 134.419 41.0272 134.204C40.8536 133.994 43.3265 131.725 46.5398 129.138C49.7561 126.547 52.5009 124.622 52.6706 124.83C52.8426 125.043 50.3721 127.313 47.1572 129.903" fill="#0E6EB3"/>
<path d="M48.376 130.451C45.8109 133.383 43.5745 135.624 43.3816 135.455C43.1858 135.284 45.1112 132.769 47.6747 129.838C50.2422 126.906 52.477 124.661 52.6691 124.83C52.8642 124.997 50.938 127.512 48.376 130.451Z" fill="#0E6EB3"/>
<path d="M49.6731 130.616C47.8154 133.687 46.1418 136.082 45.9383 135.958C45.7349 135.836 47.0781 133.245 48.9405 130.172C50.7967 127.095 52.4671 124.706 52.6692 124.826C52.8727 124.948 51.5263 127.543 49.6731 130.616" fill="#0E6EB3"/>
<path d="M50.8042 129.989C49.7091 132.816 48.6669 135.048 48.4835 134.975C48.2959 134.9 49.034 132.553 50.1277 129.728C51.2259 126.902 52.2619 124.671 52.4431 124.742C52.6344 124.813 51.894 127.162 50.8042 129.989Z" fill="#0E6EB3"/>
<path d="M45.8846 128.004C42.268 129.995 39.4441 131.804 39.577 132.042C39.706 132.28 42.7457 130.858 46.3576 128.871C49.9763 126.877 52.8004 125.068 52.6704 124.83C52.5391 124.59 49.5009 126.012 45.8846 128.004" fill="#0E6EB3"/>
<path d="M45.4383 126.779C41.53 128.112 38.4326 129.401 38.5227 129.657C38.6078 129.917 41.8494 129.042 45.757 127.709C49.6632 126.378 52.7582 125.086 52.6705 124.83C52.5822 124.575 49.3451 125.446 45.4383 126.779" fill="#0E6EB3"/>
<path d="M45.6273 125.455C41.7797 126.055 38.6863 126.749 38.7262 126.999C38.7669 127.258 41.9211 126.975 45.7694 126.378C49.6231 125.776 52.7175 125.084 52.6768 124.834C52.6346 124.579 49.4773 124.86 45.6273 125.455Z" fill="#0E6EB3"/>
<path d="M46.1825 124.274C42.5899 124.199 39.6747 124.331 39.6699 124.571C39.6623 124.809 42.5715 125.058 46.1627 125.131C49.7545 125.202 52.6692 125.07 52.6768 124.836C52.6806 124.6 49.773 124.351 46.1825 124.274" fill="#0E6EB3"/>
<path d="M47.3139 123.653C44.3402 123.067 41.895 122.748 41.8596 122.947C41.8189 123.141 44.2012 123.773 47.1757 124.36C50.1502 124.948 52.5871 125.265 52.6246 125.07C52.6693 124.872 50.2854 124.238 47.3139 123.653Z" fill="#0E6EB3"/>
<path d="M53.1999 127.734C51.835 128.487 50.1187 127.986 49.366 126.619C48.6134 125.255 49.1126 123.537 50.4773 122.784C51.8466 122.033 53.5632 122.532 54.3135 123.896C55.0661 125.261 54.5692 126.979 53.1999 127.734" fill="#218FDE"/>
<path d="M51.2821 125.66C50.9103 125.864 50.4457 125.727 50.2422 125.357C50.0388 124.988 50.1762 124.524 50.5432 124.319C50.9119 124.117 51.3796 124.25 51.5815 124.622C51.7852 124.99 51.6507 125.456 51.2821 125.66Z" fill="#38B6FF"/>
</svg>
