<svg width="182" height="107" viewBox="0 0 182 107" fill="none" xmlns="http://www.w3.org/2000/svg">
<path d="M13.272 93.2684C12.9547 92.7457 12.516 92.3444 11.956 92.0644C11.4147 91.7844 10.7707 91.6444 10.024 91.6444C8.64267 91.6444 7.55067 92.0924 6.748 92.9884C5.964 93.8844 5.572 95.0884 5.572 96.6004C5.572 98.2991 5.992 99.5964 6.832 100.492C7.69067 101.37 8.932 101.808 10.556 101.808C12.4787 101.808 13.8507 100.94 14.672 99.2044H9.156V95.2564H19.404V100.576C18.9747 101.622 18.34 102.602 17.5 103.516C16.6787 104.431 15.6333 105.187 14.364 105.784C13.0947 106.363 11.648 106.652 10.024 106.652C8.04533 106.652 6.29067 106.232 4.76 105.392C3.248 104.534 2.072 103.348 1.232 101.836C0.410667 100.306 0 98.5604 0 96.6004C0 94.659 0.410667 92.9324 1.232 91.4204C2.072 89.8897 3.248 88.7044 4.76 87.8644C6.272 87.0057 8.01733 86.5764 9.996 86.5764C12.4787 86.5764 14.532 87.1737 16.156 88.3684C17.78 89.5631 18.788 91.1964 19.18 93.2684H13.272Z" fill="white"/>
<path d="M20.9674 98.6444C20.9674 97.0204 21.2567 95.6017 21.8354 94.3884C22.4327 93.1751 23.2354 92.2417 24.2434 91.5884C25.2701 90.9351 26.4087 90.6084 27.6594 90.6084C28.7421 90.6084 29.6754 90.8231 30.4594 91.2524C31.2434 91.6817 31.8501 92.2604 32.2794 92.9884V90.8044H37.7674V106.512H32.2794V104.328C31.8501 105.056 31.2341 105.635 30.4314 106.064C29.6474 106.494 28.7234 106.708 27.6594 106.708C26.4087 106.708 25.2701 106.382 24.2434 105.728C23.2354 105.075 22.4327 104.142 21.8354 102.928C21.2567 101.696 20.9674 100.268 20.9674 98.6444ZM32.2794 98.6444C32.2794 97.6364 31.9994 96.8431 31.4394 96.2644C30.8981 95.6857 30.2261 95.3964 29.4234 95.3964C28.6021 95.3964 27.9207 95.6857 27.3794 96.2644C26.8381 96.8244 26.5674 97.6177 26.5674 98.6444C26.5674 99.6524 26.8381 100.455 27.3794 101.052C27.9207 101.631 28.6021 101.92 29.4234 101.92C30.2261 101.92 30.8981 101.631 31.4394 101.052C31.9994 100.474 32.2794 99.6711 32.2794 98.6444Z" fill="white"/>
<path d="M61.4187 90.6644C63.3973 90.6644 64.9467 91.2617 66.0667 92.4564C67.2053 93.651 67.7747 95.2844 67.7747 97.3564V106.512H62.2867V98.0844C62.2867 97.2444 62.0533 96.5911 61.5867 96.1244C61.12 95.6577 60.4853 95.4244 59.6827 95.4244C58.88 95.4244 58.2453 95.6577 57.7787 96.1244C57.312 96.5911 57.0787 97.2444 57.0787 98.0844V106.512H51.5907V98.0844C51.5907 97.2444 51.3573 96.5911 50.8907 96.1244C50.4427 95.6577 49.8173 95.4244 49.0147 95.4244C48.1933 95.4244 47.5493 95.6577 47.0827 96.1244C46.616 96.5911 46.3827 97.2444 46.3827 98.0844V106.512H40.8947V90.8044H46.3827V92.8764C46.868 92.2044 47.4933 91.6724 48.2587 91.2804C49.0427 90.8697 49.9387 90.6644 50.9467 90.6644C52.104 90.6644 53.1307 90.9164 54.0267 91.4204C54.9413 91.9244 55.66 92.6337 56.1827 93.5484C56.7427 92.6897 57.48 91.9991 58.3947 91.4764C59.3093 90.9351 60.3173 90.6644 61.4187 90.6644Z" fill="white"/>
<path d="M85.7894 98.4764C85.7894 98.9057 85.7614 99.3351 85.7054 99.7644H75.3174C75.3734 100.623 75.6067 101.267 76.0174 101.696C76.4467 102.107 76.988 102.312 77.6414 102.312C78.556 102.312 79.2094 101.902 79.6014 101.08H85.4534C85.2107 102.163 84.7347 103.134 84.0254 103.992C83.3347 104.832 82.4574 105.495 81.3934 105.98C80.3294 106.466 79.1534 106.708 77.8654 106.708C76.316 106.708 74.9347 106.382 73.7214 105.728C72.5267 105.075 71.584 104.142 70.8934 102.928C70.2214 101.715 69.8854 100.287 69.8854 98.6444C69.8854 97.0017 70.2214 95.5831 70.8934 94.3884C71.5654 93.1751 72.4987 92.2417 73.6934 91.5884C74.9067 90.9351 76.2974 90.6084 77.8654 90.6084C79.4147 90.6084 80.7867 90.9257 81.9814 91.5604C83.176 92.1951 84.1094 93.1097 84.7814 94.3044C85.4534 95.4804 85.7894 96.8711 85.7894 98.4764ZM80.1894 97.1044C80.1894 96.4324 79.9654 95.9097 79.5174 95.5364C79.0694 95.1444 78.5094 94.9484 77.8374 94.9484C77.1654 94.9484 76.6147 95.1351 76.1854 95.5084C75.756 95.8631 75.476 96.3951 75.3454 97.1044H80.1894Z" fill="white"/>
<path d="M98.8827 86.7724V106.512H93.3947V86.7724H98.8827Z" fill="white"/>
<path d="M108.7 106.708C107.281 106.708 106.012 106.475 104.892 106.008C103.791 105.523 102.913 104.87 102.26 104.048C101.625 103.208 101.271 102.266 101.196 101.22H106.516C106.591 101.724 106.824 102.116 107.216 102.396C107.608 102.676 108.093 102.816 108.672 102.816C109.12 102.816 109.475 102.723 109.736 102.536C109.997 102.35 110.128 102.107 110.128 101.808C110.128 101.416 109.913 101.127 109.484 100.94C109.055 100.754 108.345 100.548 107.356 100.324C106.236 100.1 105.303 99.8484 104.556 99.5684C103.809 99.2884 103.156 98.8311 102.596 98.1964C102.055 97.5617 101.784 96.7031 101.784 95.6204C101.784 94.6871 102.036 93.8471 102.54 93.1004C103.044 92.3351 103.781 91.7284 104.752 91.2804C105.741 90.8324 106.927 90.6084 108.308 90.6084C110.361 90.6084 111.976 91.1124 113.152 92.1204C114.328 93.1284 115.009 94.4537 115.196 96.0964H110.24C110.147 95.5924 109.923 95.2097 109.568 94.9484C109.232 94.6684 108.775 94.5284 108.196 94.5284C107.748 94.5284 107.403 94.6124 107.16 94.7804C106.936 94.9484 106.824 95.1817 106.824 95.4804C106.824 95.8537 107.039 96.1431 107.468 96.3484C107.897 96.5351 108.588 96.7311 109.54 96.9364C110.679 97.1791 111.621 97.4497 112.368 97.7484C113.133 98.0471 113.796 98.5324 114.356 99.2044C114.935 99.8577 115.224 100.754 115.224 101.892C115.224 102.807 114.953 103.628 114.412 104.356C113.889 105.084 113.133 105.663 112.144 106.092C111.173 106.503 110.025 106.708 108.7 106.708Z" fill="white"/>
<path d="M123.41 85.7924V106.512H117.922V85.7924H123.41Z" fill="white"/>
<path d="M125.639 98.6444C125.639 97.0204 125.929 95.6017 126.507 94.3884C127.105 93.1751 127.907 92.2417 128.915 91.5884C129.942 90.9351 131.081 90.6084 132.331 90.6084C133.414 90.6084 134.347 90.8231 135.131 91.2524C135.915 91.6817 136.522 92.2604 136.951 92.9884V90.8044H142.439V106.512H136.951V104.328C136.522 105.056 135.906 105.635 135.103 106.064C134.319 106.494 133.395 106.708 132.331 106.708C131.081 106.708 129.942 106.382 128.915 105.728C127.907 105.075 127.105 104.142 126.507 102.928C125.929 101.696 125.639 100.268 125.639 98.6444ZM136.951 98.6444C136.951 97.6364 136.671 96.8431 136.111 96.2644C135.57 95.6857 134.898 95.3964 134.095 95.3964C133.274 95.3964 132.593 95.6857 132.051 96.2644C131.51 96.8244 131.239 97.6177 131.239 98.6444C131.239 99.6524 131.51 100.455 132.051 101.052C132.593 101.631 133.274 101.92 134.095 101.92C134.898 101.92 135.57 101.631 136.111 101.052C136.671 100.474 136.951 99.6711 136.951 98.6444Z" fill="white"/>
<path d="M166.091 90.6644C168.069 90.6644 169.619 91.2617 170.739 92.4564C171.877 93.651 172.447 95.2844 172.447 97.3564V106.512H166.959V98.0844C166.959 97.2444 166.725 96.5911 166.259 96.1244C165.792 95.6577 165.157 95.4244 164.355 95.4244C163.552 95.4244 162.917 95.6577 162.451 96.1244C161.984 96.5911 161.751 97.2444 161.751 98.0844V106.512H156.263V98.0844C156.263 97.2444 156.029 96.5911 155.563 96.1244C155.115 95.6577 154.489 95.4244 153.687 95.4244C152.865 95.4244 152.221 95.6577 151.755 96.1244C151.288 96.5911 151.055 97.2444 151.055 98.0844V106.512H145.567V90.8044H151.055V92.8764C151.54 92.2044 152.165 91.6724 152.931 91.2804C153.715 90.8697 154.611 90.6644 155.619 90.6644C156.776 90.6644 157.803 90.9164 158.699 91.4204C159.613 91.9244 160.332 92.6337 160.855 93.5484C161.415 92.6897 162.152 91.9991 163.067 91.4764C163.981 90.9351 164.989 90.6644 166.091 90.6644Z" fill="white"/>
<path d="M178.225 89.3484C177.255 89.3484 176.471 89.087 175.873 88.5644C175.295 88.023 175.005 87.3511 175.005 86.5484C175.005 85.7271 175.295 85.0457 175.873 84.5044C176.471 83.963 177.255 83.6924 178.225 83.6924C179.177 83.6924 179.943 83.963 180.521 84.5044C181.119 85.0457 181.417 85.7271 181.417 86.5484C181.417 87.3511 181.119 88.023 180.521 88.5644C179.943 89.087 179.177 89.3484 178.225 89.3484ZM180.941 90.8044V106.512H175.453V90.8044H180.941Z" fill="white"/>
<path d="M122.553 36.994C122.172 36.8592 121.763 37.0396 121.586 37.3994C117.482 45.7455 109.18 50.9284 99.9187 50.9284C86.598 50.9284 75.7609 40.0904 75.7609 26.7678C75.7609 13.5782 86.0969 2.98096 99.292 2.64436C99.69 2.63506 100.023 2.33102 100.068 1.93491C100.113 1.53695 99.8583 1.16873 99.4706 1.07017C96.736 0.358854 94.0041 -6.01593e-05 91.3597 -6.01593e-05C73.5749 -6.01593e-05 59.104 14.4736 59.104 32.2584C59.104 50.0432 73.5749 64.5122 91.3597 64.5122C107.022 64.5122 120.367 53.3153 123.092 37.8941C123.161 37.4989 122.931 37.1149 122.553 36.994" fill="#FFB521"/>
<path d="M121.586 37.3995C117.482 45.7456 109.18 50.9285 99.9187 50.9285C86.598 50.9285 75.7608 40.0904 75.7608 26.7679C75.7608 13.5783 86.0968 2.98104 99.2919 2.64445C99.6899 2.63515 100.023 2.33111 100.067 1.935C100.084 1.79367 100.023 1.67557 99.9726 1.55283C98.2273 1.2246 96.4894 0.99959 94.8009 0.99959C78.9148 0.99959 65.9949 13.9223 65.9949 29.8075C65.9949 45.6926 78.9148 58.6144 94.8009 58.6144C108.021 58.6144 119.38 49.6742 122.641 37.0657C122.606 37.0462 122.59 37.0062 122.553 36.9941C122.172 36.8593 121.763 37.0397 121.586 37.3995" fill="#F58B11"/>
<path d="M105.534 21.9393L104.527 27.7991C104.5 27.9627 104.566 28.1282 104.697 28.2249C104.833 28.3226 105.008 28.3347 105.154 28.2556L110.42 25.4903L115.689 28.2556C115.75 28.291 115.82 28.3058 115.889 28.3058C115.98 28.3058 116.071 28.2789 116.145 28.2249C116.276 28.1282 116.344 27.9627 116.315 27.7991L115.307 21.9393L119.572 17.7886C119.688 17.6723 119.732 17.5003 119.678 17.3413C119.628 17.1851 119.493 17.0698 119.332 17.0475L113.441 16.1948L110.81 10.8567C110.659 10.561 110.176 10.5647 110.031 10.8567L107.401 16.1948L101.512 17.0475C101.351 17.0698 101.214 17.1851 101.166 17.3413C101.113 17.5003 101.156 17.6723 101.273 17.7886L105.534 21.9393" fill="#BD0D0D"/>
<path d="M110.422 10.6401C110.264 10.6363 110.105 10.7116 110.031 10.8567L107.401 16.1948L101.512 17.0475C101.351 17.0698 101.214 17.1851 101.166 17.3413C101.113 17.5003 101.156 17.6723 101.273 17.7886L105.534 21.9393L104.527 27.7991C104.5 27.9627 104.566 28.1282 104.697 28.2249C104.833 28.3226 105.008 28.3347 105.154 28.2556L110.42 25.4903H110.422V10.6401" fill="#7D0000"/>
</svg>
