<svg width="148" height="140" viewBox="0 0 148 140" fill="none" xmlns="http://www.w3.org/2000/svg">
<path d="M125.613 34.5439H136.756V98.545H125.613V34.5439Z" fill="#FFB521"/>
<path d="M138.448 34.5439C138.448 34.5439 144.399 28.7898 138.201 25.1921C132.404 21.8293 131.185 17.8979 131.185 17.8979V34.5439H138.448Z" fill="#38B6FF"/>
<path d="M123.923 34.5439C123.923 34.5439 117.975 28.7898 124.172 25.1921C129.969 21.8293 131.185 17.8979 131.185 17.8979V34.5439H123.923Z" fill="#38B6FF"/>
<path d="M123.727 38.7794H138.448V34.5438H123.727V38.7794Z" fill="#BD0D0D"/>
<path d="M123.727 70.5153H138.448V66.2798H123.727V70.5153Z" fill="#5B271C"/>
<path d="M129.116 45.657C129.246 44.6243 130.119 43.8226 131.185 43.8226C132.254 43.8226 133.128 44.6243 133.257 45.657H133.284V55.3583H129.088V45.657H129.116" fill="#5B271C"/>
<path d="M129.116 79.3044C129.246 78.2736 130.119 77.4699 131.185 77.4699C132.254 77.4699 133.128 78.2736 133.257 79.3044H133.284V89.0076H129.088V79.3044H129.116" fill="#5B271C"/>
<path d="M22.1649 34.5439H11.0242V98.545H22.1649V34.5439Z" fill="#F58B11"/>
<path d="M9.33396 34.5439C9.33396 34.5439 3.38247 28.7898 9.58078 25.1921C15.3782 21.8293 16.5966 17.8979 16.5966 17.8979V34.5439H9.33396Z" fill="#218FDE"/>
<path d="M23.8573 34.5439C23.8573 34.5439 29.8049 28.7898 23.6105 25.1921C17.8111 21.8293 16.5967 17.8979 16.5967 17.8979V34.5439H23.8573Z" fill="#218FDE"/>
<path d="M47.6808 52.4417C47.6808 52.4417 32.0854 34.3187 51.6123 22.9845C69.8755 12.3788 73.7102 -2.18037e-05 73.7102 -2.18037e-05V52.4417H47.6808" fill="#218FDE"/>
<path d="M100.792 52.4417C100.792 52.4417 115.337 34.3187 95.8081 22.9845C77.5449 12.3788 73.7102 -2.18037e-05 73.7102 -2.18037e-05V52.4417H100.792" fill="#38B6FF"/>
<path d="M24.0547 38.7794H9.33398V34.5438H24.0547V38.7794Z" fill="#7D0000"/>
<path d="M24.0547 70.5153H9.33398V66.2798H24.0547V70.5153Z" fill="#3D160E"/>
<path d="M145.077 134.218H86.8062V97.4195H145.077V134.218Z" fill="#FFB521"/>
<path d="M140.894 112.768C140.659 110.876 139.062 109.411 137.107 109.411C135.152 109.411 133.557 110.876 133.318 112.768H133.271V134.218H140.944V112.768H140.894" fill="#5B271C"/>
<path d="M128.184 112.768C127.947 110.876 126.351 109.411 124.396 109.411C122.44 109.411 120.844 110.876 120.611 112.768H120.56V134.218H128.231V112.768H128.184Z" fill="#5B271C"/>
<path d="M115.475 112.768C115.236 110.876 113.637 109.411 111.686 109.411C109.729 109.411 108.134 110.876 107.895 112.768H107.847V134.218H115.523V112.768H115.475" fill="#5B271C"/>
<path d="M102.765 112.768C102.526 110.876 100.93 109.411 98.9736 109.411C97.0207 109.411 95.4292 110.876 95.1883 112.768H95.1389V134.218H102.812V112.768H102.765" fill="#5B271C"/>
<path d="M2.70532 134.218H60.9761V97.4195H2.70532V134.218Z" fill="#F58B11"/>
<path d="M6.88528 112.768C7.12223 110.876 8.71968 109.411 10.6745 109.411C12.6294 109.411 14.2249 110.876 14.4618 112.768H14.5112V134.218H6.83789V112.768H6.88528" fill="#3D160E"/>
<path d="M19.5979 112.768C19.8349 110.876 21.4284 109.411 23.3833 109.411C25.3401 109.411 26.9336 110.876 27.1726 112.768H27.22V134.218H19.5505V112.768H19.5979" fill="#3D160E"/>
<path d="M32.3047 112.768C32.5456 110.876 34.1411 109.411 36.0959 109.411C38.0508 109.411 39.6463 110.876 39.8832 112.768H39.9326V134.218H32.2593V112.768H32.3047" fill="#5B271C"/>
<path d="M45.0174 112.768C45.2563 110.876 46.8518 109.411 48.8047 109.411C50.7596 109.411 52.3531 110.876 52.594 112.768H52.6414V134.218H44.968V112.768H45.0174" fill="#5B271C"/>
<path d="M41.8856 101.578H2.70532V97.4195H41.8856V101.578Z" fill="#7D0000"/>
<path d="M105.898 101.578H145.077V97.4195H105.898V101.578Z" fill="#BD0D0D"/>
<path d="M102.52 85.5936H45.26V49.3693H102.52V85.5936Z" fill="#FFB521"/>
<path d="M102.52 53.9643H45.26V49.3694H102.52V53.9643Z" fill="#BD0D0D"/>
<path d="M18.6642 45.657C18.5339 44.6243 17.6631 43.8226 16.5968 43.8226C15.5266 43.8226 14.6538 44.6243 14.5235 45.657H14.4958V55.3583H18.6939V45.657H18.6642" fill="#3D160E"/>
<path d="M18.6642 79.3044C18.5339 78.2736 17.6631 77.4699 16.5968 77.4699C15.5266 77.4699 14.6538 78.2736 14.5235 79.3044H14.4958V89.0076H18.6939V79.3044H18.6642" fill="#3D160E"/>
<path d="M73.8919 49.3693H45.26V85.5936H73.8919V49.3693Z" fill="#F58B11"/>
<path d="M73.8919 49.3694H45.26V53.9643H73.8919V49.3694Z" fill="#7D0000"/>
<path d="M96.3492 68.1557C96.1142 66.2976 94.5463 64.8542 92.625 64.8542C90.7057 64.8542 89.1379 66.2976 88.9029 68.1557H88.8535V85.5936H96.3966V68.1557H96.3492Z" fill="#5B271C"/>
<path d="M83.858 68.1557C83.6249 66.2976 82.0551 64.8542 80.1358 64.8542C78.2125 64.8542 76.6486 66.2976 76.4136 68.1557H76.3643V85.5936H83.9053V68.1557H83.858" fill="#5B271C"/>
<path d="M71.3685 68.1557C71.1335 66.2976 69.5656 64.8542 67.6443 64.8542C65.725 64.8542 64.1571 66.2976 63.9241 68.1557H63.8748V85.5936H71.4158V68.1557H71.3685Z" fill="#3D160E"/>
<path d="M58.877 68.1557C58.642 66.2976 57.0741 64.8542 55.1548 64.8542C53.2335 64.8542 51.6637 66.2976 51.4326 68.1557H51.3853V85.5936H58.9263V68.1557H58.877" fill="#3D160E"/>
<path d="M116.435 134.218H31.343V82.1854H116.435V134.218" fill="#FFCC3B"/>
<path d="M116.435 89.0136H31.343V82.1854H116.435V89.0136Z" fill="#BD0D0D"/>
<path d="M73.892 82.1854H31.343V134.218H73.892V82.1854Z" fill="#FFB521"/>
<path d="M73.892 82.1854H31.343V89.0136H73.892V82.1854Z" fill="#7D0000"/>
<path d="M107.267 104.597C106.915 101.837 104.587 99.6982 101.732 99.6982C98.8806 99.6982 96.5485 101.837 96.199 104.597H96.1279V134.218H107.336V104.597H107.267Z" fill="#5B271C"/>
<path d="M88.7034 104.597C88.3559 101.837 86.0239 99.6982 83.1706 99.6982C80.3153 99.6982 77.9873 101.837 77.6378 104.597H77.5667V134.218H88.7726V104.597H88.7034Z" fill="#5B271C"/>
<path d="M70.1402 104.597C69.7927 101.837 67.4666 99.6982 64.6113 99.6982C61.756 99.6982 59.424 101.837 59.0804 104.597H59.0054V134.218H70.2153V104.597H70.1402" fill="#3D160E"/>
<path d="M51.5809 104.597C51.2334 101.837 48.9014 99.6982 46.0481 99.6982C43.1948 99.6982 40.8667 101.837 40.5132 104.597H40.4421V134.218H51.65V104.597H51.5809Z" fill="#3D160E"/>
<path d="M73.892 139.82H0V134.218H73.892V139.82Z" fill="#7D0000"/>
<path d="M73.8921 139.82H147.78V134.218H73.8921V139.82Z" fill="#BD0D0D"/>
</svg>
