<svg width="24" height="24" viewBox="0 0 24 24" fill="none" xmlns="http://www.w3.org/2000/svg">
<path d="M17.9184 14.3201C17.6594 14.5711 17.5404 14.9341 17.5994 15.2901L18.4884 20.2101C18.5634 20.6271 18.3874 21.0491 18.0384 21.2901C17.6964 21.5401 17.2414 21.5701 16.8684 21.3701L12.4394 19.0601C12.2854 18.9781 12.1144 18.9341 11.9394 18.9291H11.6684C11.5744 18.9431 11.4824 18.9731 11.3984 19.0191L6.96839 21.3401C6.74939 21.4501 6.50139 21.4891 6.25839 21.4501C5.66639 21.3381 5.27139 20.7741 5.36839 20.1791L6.25839 15.2591C6.31739 14.9001 6.19839 14.5351 5.93939 14.2801L2.32839 10.7801C2.02639 10.4871 1.92139 10.0471 2.05939 9.6501C2.19339 9.2541 2.53539 8.9651 2.94839 8.9001L7.91839 8.1791C8.29639 8.1401 8.62839 7.9101 8.79839 7.5701L10.9884 3.0801C11.0404 2.9801 11.1074 2.8881 11.1884 2.8101L11.2784 2.7401C11.3254 2.6881 11.3794 2.6451 11.4394 2.6101L11.5484 2.5701L11.7184 2.5001H12.1394C12.5154 2.5391 12.8464 2.7641 13.0194 3.1001L15.2384 7.5701C15.3984 7.8971 15.7094 8.1241 16.0684 8.1791L21.0384 8.9001C21.4584 8.9601 21.8094 9.2501 21.9484 9.6501C22.0794 10.0511 21.9664 10.4911 21.6584 10.7801L17.9184 14.3201Z" fill="#130F26"/>
</svg>
